RobotoSerifDisplay-HairlineWidth100.ufo
<glyph name="dollar" format="2">
  <advance width="383.6"/>
  <unicode hex="0024"/>
  <outline>
    <contour>
      <point x="189.49" y="787.42" type="line"/>
      <point x="189.49" y="690.3" type="line"/>
      <point x="189.49" y="682.9" type="line"/>
      <point x="189.49" y="20.52" type="line"/>
      <point x="189.49" y="14.82" type="line"/>
      <point x="189.49" y="-120.0" type="line"/>
      <point x="204.082" y="-120.0" type="line"/>
      <point x="204.082" y="14.26" type="line"/>
      <point x="204.082" y="20.240000000000002" type="line"/>
      <point x="204.082" y="682.32" type="line"/>
      <point x="204.082" y="689.88" type="line"/>
      <point x="204.082" y="787.42" type="line"/>
    </contour>
    <contour>
      <point x="199.816" y="26.5" type="curve" smooth="yes"/>
      <point x="138.83564194885" y="26.5"/>
      <point x="81.277253155232" y="56.568808217675"/>
      <point x="53.69" y="106.9" type="curve"/>
      <point x="49.07" y="102.7"/>
      <point x="64.664" y="68.84"/>
      <point x="69.086" y="68.56" type="curve"/>
      <point x="69.086" y="175.08" type="line"/>
      <point x="30.456" y="175.08" type="line"/>
      <point x="30.456" y="96.14" type="line"/>
      <point x="61.4150810096006" y="49.1428292794432"/>
      <point x="125.338214559382" y="8.56"/>
      <point x="200.3" y="8.56" type="curve" smooth="yes"/>
      <point x="286.857648535562" y="8.56"/>
      <point x="355.486" y="73.68"/>
      <point x="355.486" y="196.54" type="curve" smooth="yes"/>
      <point x="355.486" y="320.1"/>
      <point x="280.68986132142" y="356.66321866412"/>
      <point x="216.638" y="381.36" type="curve" smooth="yes"/>
      <point x="146.699726425358" y="407.674014954546"/>
      <point x="79.298" y="432.407187096752"/>
      <point x="79.298" y="538.68" type="curve" smooth="yes"/>
      <point x="79.298" y="628.35784"/>
      <point x="125.636122905058" y="680.06"/>
      <point x="199.738" y="680.06" type="curve" smooth="yes"/>
      <point x="256.76208791687" y="680.06"/>
      <point x="298.18652722948" y="656.525613705702"/>
      <point x="318.484" y="618.22" type="curve"/>
      <point x="324.05" y="615.42"/>
      <point x="305.842" y="652.18"/>
      <point x="300.496" y="653.58" type="curve"/>
      <point x="300.496" y="560.94" type="line"/>
      <point x="338.202" y="560.94" type="line"/>
      <point x="338.202" y="638.58" type="line"/>
      <point x="319.11492607548" y="663.179445345158"/>
      <point x="269.239942857146" y="698.0"/>
      <point x="199.496" y="698.0" type="curve" smooth="yes"/>
      <point x="111.952" y="698.0"/>
      <point x="50.83" y="631.58"/>
      <point x="50.83" y="529.58" type="curve" smooth="yes"/>
      <point x="50.83" y="408.44"/>
      <point x="121.60383936416" y="373.740435627752"/>
      <point x="184.476" y="348.62" type="curve" smooth="yes"/>
      <point x="254.832168648876" y="321.169873352178"/>
      <point x="327.28" y="302.331030674806"/>
      <point x="327.28" y="183.72" type="curve" smooth="yes"/>
      <point x="327.28" y="74.3796727272696"/>
      <point x="273.198068425076" y="26.5"/>
    </contour>
  </outline>
</glyph>
<glyph name="four" format="2">
  <advance width="383.6"/>
  <unicode hex="0034"/>
  <outline>
    <contour>
      <point x="27.564" y="112.28" type="line"/>
      <point x="374.166" y="112.28" type="line"/>
      <point x="374.166" y="144.62" type="line"/>
      <point x="42.374" y="144.62" type="line"/>
      <point x="43.77" y="131.1" type="line"/>
      <point x="267.886" y="600.28" type="line"/>
      <point x="270.59" y="609.0" type="line"/>
      <point x="255.13" y="609.0" type="line"/>
      <point x="27.564" y="132.32" type="line"/>
    </contour>
    <contour>
      <point x="285.272" y="-77.0" type="line"/>
      <point x="285.272" y="609.0" type="line"/>
      <point x="263.058" y="609.0" type="line"/>
      <point x="249.974" y="581.44" type="line"/>
      <point x="249.974" y="-77.0" type="line"/>
    </contour>
  </outline>
</glyph>
<glyph name="seven" format="2">
  <advance width="383.6"/>
  <unicode hex="0037"/>
  <outline>
    <contour>
      <point x="131.418" y="568.82" type="line" smooth="yes"/>
      <point x="89.656" y="568.82"/>
      <point x="73.29384792417339" y="561.2256432200807"/>
      <point x="69.984" y="521.02" type="curve" smooth="yes"/>
      <point x="62.518" y="427.84" type="line"/>
      <point x="48.686" y="427.84" type="line"/>
      <point x="48.686" y="609.0" type="line"/>
      <point x="365.238" y="609.0" type="line"/>
      <point x="365.238" y="581.38" type="line"/>
      <point x="287.49" y="421.68"/>
      <point x="204.17" y="219.3"/>
      <point x="184.852" y="-77.0" type="curve"/>
      <point x="146.454" y="-77.0" type="line"/>
      <point x="166.916" y="200.62"/>
      <point x="285.306" y="444.24"/>
      <point x="349.196" y="579.76" type="curve"/>
      <point x="351.912" y="568.82" type="line"/>
    </contour>
  </outline>
</glyph>
<glyph name="a" format="2">
  <advance width="347"/>
  <unicode hex="0061"/>
  <outline>
    <contour>
      <point x="254.318" y="305.3" type="line"/>
      <point x="106.862" y="278.44"/>
      <point x="30.578" y="231.58"/>
      <point x="30.578" y="122.14" type="curve" smooth="yes"/>
      <point x="30.578" y="42.58"/>
      <point x="73.866" y="-10.0"/>
      <point x="134.504" y="-10.0" type="curve" smooth="yes"/>
      <point x="191.096" y="-10.0"/>
      <point x="232.372" y="43.62"/>
      <point x="254.318" y="112.2" type="curve"/>
      <point x="254.318" y="146.0" type="line"/>
      <point x="234.394" y="73.58"/>
      <point x="195.924" y="7.800000000000001"/>
      <point x="139.156" y="7.800000000000001" type="curve" smooth="yes"/>
      <point x="91.79" y="7.800000000000001"/>
      <point x="66.59" y="49.26"/>
      <point x="66.59" y="123.0" type="curve" smooth="yes"/>
      <point x="66.59" y="226.34"/>
      <point x="122.566" y="265.32"/>
      <point x="254.318" y="288.06" type="curve"/>
    </contour>
    <contour>
      <point x="249.26" y="0.0" type="line"/>
      <point x="336.246" y="0.0" type="line"/>
      <point x="336.246" y="15.38" type="line"/>
      <point x="335.444" y="15.38" type="line"/>
      <point x="300.952" y="15.38"/>
      <point x="282.908" y="20.66"/>
      <point x="282.908" y="42.78" type="curve" smooth="yes"/>
      <point x="282.908" y="385.06" type="line" smooth="yes"/>
      <point x="282.908" y="493.76"/>
      <point x="228.79" y="528.0"/>
      <point x="165.072" y="528.0" type="curve" smooth="yes"/>
      <point x="108.49" y="528.0"/>
      <point x="69.82" y="496.3"/>
      <point x="50.842" y="471.86" type="curve"/>
      <point x="50.842" y="402.36" type="line"/>
      <point x="86.128" y="402.36" type="line"/>
      <point x="86.128" y="487.14" type="line"/>
      <point x="70" y="487"/>
      <point x="65.368" y="459.4"/>
      <point x="64.686" y="452.4" type="curve"/>
      <point x="82.17882586828871" y="486.91009589487487"/>
      <point x="113.108" y="510.62"/>
      <point x="163.906" y="510.62" type="curve" smooth="yes"/>
      <point x="217.342" y="510.62"/>
      <point x="248.094" y="481.46362529457974"/>
      <point x="248.094" y="379.62" type="curve" smooth="yes"/>
      <point x="248.094" y="104.46" type="line"/>
      <point x="249.26" y="111.04" type="line"/>
    </contour>
  </outline>
</glyph>
<glyph name="i" format="2">
  <advance width="176.96"/>
  <unicode hex="0069"/>
  <outline>
    <contour>
      <point x="83.468" y="658.34" type="curve" smooth="yes"/>
      <point x="98.62" y="658.34"/>
      <point x="109.69200000000001" y="671.88"/>
      <point x="109.69200000000001" y="693.54" type="curve" smooth="yes"/>
      <point x="109.69200000000001" y="715.92"/>
      <point x="98.62" y="729.46"/>
      <point x="83.468" y="729.46" type="curve" smooth="yes"/>
      <point x="69.018" y="729.46"/>
      <point x="57.528" y="715.92"/>
      <point x="57.528" y="693.54" type="curve" smooth="yes"/>
      <point x="57.528" y="671.88"/>
      <point x="69.018" y="658.34"/>
    </contour>
    <contour>
      <point x="106.8" y="518.0" type="line"/>
      <point x="18.066" y="518.0" type="line"/>
      <point x="18.066" y="503.48" type="line"/>
      <point x="30.5" y="501.48" type="line" smooth="yes"/>
      <point x="62.8329898240402" y="496.055488780686"/>
      <point x="71.986" y="491.5"/>
      <point x="71.986" y="472.82" type="curve" smooth="yes"/>
      <point x="71.986" y="40.2" type="line" smooth="yes"/>
      <point x="71.986" y="19.8"/>
      <point x="49.668951219513" y="15.38"/>
      <point x="20.066" y="15.38" type="curve" smooth="yes"/>
      <point x="18.066" y="15.38" type="line"/>
      <point x="18.066" y="0.0" type="line"/>
      <point x="160.302" y="0.0" type="line"/>
      <point x="160.302" y="15.38" type="line"/>
      <point x="158.5" y="15.38" type="line" smooth="yes"/>
      <point x="128.699827160496" y="15.38"/>
      <point x="106.8" y="19.8"/>
      <point x="106.8" y="40.2" type="curve" smooth="yes"/>
    </contour>
  </outline>
</glyph>
<glyph name="k" format="2">
  <advance width="385"/>
  <unicode hex="006B"/>
  <outline>
    <contour>
      <point x="374.28" y="0.0" type="line"/>
      <point x="374.28" y="15.38" type="line"/>
      <point x="373.4" y="15.38" type="line"/>
      <point x="353.874" y="15.38"/>
      <point x="336.335643541646" y="22.9046916479878"/>
      <point x="320.8" y="47.08" type="curve" smooth="yes"/>
      <point x="159.588" y="306.22" type="line"/>
      <point x="154.36599999999999" y="285.7" type="line"/>
      <point x="279.952" y="465.36" type="line" smooth="yes"/>
      <point x="301.041356267038" y="493.893969828826"/>
      <point x="318.294" y="502.62"/>
      <point x="341.724" y="502.62" type="curve"/>
      <point x="343.504" y="502.62" type="line"/>
      <point x="343.504" y="518.0" type="line"/>
      <point x="221.258" y="518.0" type="line"/>
      <point x="221.258" y="502.62" type="line"/>
      <point x="225.546" y="502.62" type="line" smooth="yes"/>
      <point x="250.78" y="502.62"/>
      <point x="273.98" y="497.92"/>
      <point x="274.76" y="485.5" type="curve"/>
      <point x="133.164" y="285.02" type="line"/>
      <point x="133.164" y="280.02" type="line"/>
      <point x="289.096" y="25.66" type="line"/>
      <point x="289.096" y="18.66"/>
      <point x="260.398" y="15.38"/>
      <point x="241.466" y="15.38" type="curve" smooth="yes"/>
      <point x="238.19" y="15.38" type="line"/>
      <point x="238.19" y="0.0" type="line"/>
    </contour>
    <contour>
      <point x="108.438" y="750.0" type="line"/>
      <point x="18.066" y="750.0" type="line"/>
      <point x="18.066" y="735.48" type="line"/>
      <point x="30.5" y="733.48" type="line" smooth="yes"/>
      <point x="64.398" y="728.06"/>
      <point x="73.624" y="724.36"/>
      <point x="73.624" y="706.54" type="curve" smooth="yes"/>
      <point x="73.624" y="40.2" type="line" smooth="yes"/>
      <point x="73.624" y="19.8"/>
      <point x="51.282" y="15.38"/>
      <point x="21.484" y="15.38" type="curve" smooth="yes"/>
      <point x="19.704" y="15.38" type="line"/>
      <point x="19.704" y="0.0" type="line"/>
      <point x="161.016" y="0.0" type="line"/>
      <point x="161.016" y="15.38" type="line"/>
      <point x="159.456" y="15.38" type="line" smooth="yes"/>
      <point x="131.022" y="15.38"/>
      <point x="108.438" y="19.38"/>
      <point x="108.438" y="36.56" type="curve" smooth="yes"/>
    </contour>
  </outline>
</glyph>
<glyph name="v" format="2">
  <advance width="356"/>
  <unicode hex="0076"/>
  <outline>
    <contour>
      <point x="298.652" y="485.92" type="curve"/>
      <point x="183.204" y="27.34" type="line"/>
      <point x="192.308" y="27.34" type="line"/>
      <point x="73.98" y="492.62" type="line"/>
      <point x="73.98" y="499.62"/>
      <point x="105.722" y="502.62"/>
      <point x="130.34" y="502.62" type="curve" smooth="yes"/>
      <point x="131.638" y="502.62" type="line"/>
      <point x="131.638" y="518.0" type="line"/>
      <point x="3.904" y="518.0" type="line"/>
      <point x="3.904" y="502.62" type="line"/>
      <point x="9.818" y="502.62" type="line" smooth="yes"/>
      <point x="30.214" y="502.62"/>
      <point x="38.902" y="495.9"/>
      <point x="44.366" y="474.92" type="curve" smooth="yes"/>
      <point x="166.962" y="0.0" type="line"/>
      <point x="189.746" y="0.0" type="line"/>
      <point x="310.418" y="473.68" type="line" smooth="yes"/>
      <point x="315.762" y="492.2"/>
      <point x="326.648" y="502.62"/>
      <point x="350.704" y="502.62" type="curve" smooth="yes"/>
      <point x="351.584" y="502.62" type="line"/>
      <point x="351.584" y="518.0" type="line"/>
      <point x="247.448" y="518.0" type="line"/>
      <point x="247.448" y="502.62" type="line"/>
      <point x="249.25" y="502.62" type="line" smooth="yes"/>
      <point x="274.066" y="502.62"/>
      <point x="298.652" y="496.34"/>
    </contour>
  </outline>
</glyph>
<glyph name="w" format="2">
  <advance width="511"/>
  <unicode hex="0077"/>
  <outline>
    <contour>
      <point x="258.302" y="481.1" type="line"/>
      <point x="163.5" y="0.0" type="line"/>
      <point x="140.496" y="0.0" type="line"/>
      <point x="40.946" y="479.52" type="line" smooth="yes"/>
      <point x="36.3471920372564" y="498.197609029892"/>
      <point x="21.3802352941152" y="502.62"/>
      <point x="4.904" y="502.62" type="curve"/>
      <point x="3.904" y="502.62" type="line"/>
      <point x="3.904" y="518.0" type="line"/>
      <point x="127.998" y="518.0" type="line"/>
      <point x="127.998" y="502.62" type="line"/>
      <point x="126.196" y="502.62" type="line" smooth="yes"/>
      <point x="100.559555555518" y="502.62"/>
      <point x="71.176" y="500.48"/>
      <point x="71.176" y="493.48" type="curve"/>
      <point x="165.062" y="35.94" type="line"/>
      <point x="156.496" y="35.94" type="line"/>
      <point x="252.484" y="518.0" type="line"/>
      <point x="274.62" y="518.0" type="line"/>
      <point x="373.346" y="31.78" type="line"/>
      <point x="361.504" y="18.02" type="line"/>
      <point x="455.324" y="482.48" type="line"/>
      <point x="455.324" y="494.652761904766"/>
      <point x="432.772" y="502.62"/>
      <point x="401.546" y="502.62" type="curve" smooth="yes"/>
      <point x="399.744" y="502.62" type="line"/>
      <point x="399.744" y="518.0" type="line"/>
      <point x="506.31" y="518.0" type="line"/>
      <point x="506.31" y="502.62" type="line"/>
      <point x="506.012" y="502.62" type="line"/>
      <point x="486.134" y="502.62"/>
      <point x="472.192" y="493.06"/>
      <point x="467.23199999999997" y="467.66" type="curve" smooth="yes"/>
      <point x="371.224" y="0.0" type="line"/>
      <point x="348.22" y="0.0" type="line"/>
      <point x="251.318" y="475.94" type="line"/>
    </contour>
  </outline>
</glyph>
<glyph name="y" format="2">
  <advance width="359"/>
  <unicode hex="0079"/>
  <outline>
    <contour>
      <point x="178.542" y="-18.240000000000002" type="line"/>
      <point x="195.62" y="34.78" type="line"/>
      <point x="195.62" y="34.78" type="line"/>
      <point x="75.124" y="493.48" type="line"/>
      <point x="75.124" y="500.48"/>
      <point x="105.866" y="502.62"/>
      <point x="131.264" y="502.62" type="curve" smooth="yes"/>
      <point x="132.562" y="502.62" type="line"/>
      <point x="132.562" y="518.0" type="line"/>
      <point x="4.806" y="518.0" type="line"/>
      <point x="4.806" y="502.62" type="line"/>
      <point x="5.6080000000000005" y="502.62" type="line"/>
      <point x="29.962" y="502.62"/>
      <point x="39.21" y="499.48"/>
      <point x="45.192" y="476.64" type="curve" smooth="yes"/>
    </contour>
    <contour>
      <point x="53.504" y="-230.28" type="curve" smooth="yes"/>
      <point x="114.0" y="-230.28"/>
      <point x="149.714" y="-148.9"/>
      <point x="194.08" y="17.0" type="curve" smooth="yes"/>
      <point x="312.584" y="471.1" type="line" smooth="yes"/>
      <point x="319.346" y="495.5"/>
      <point x="331.948" y="502.62"/>
      <point x="353.806" y="502.62" type="curve"/>
      <point x="353.806" y="502.62" type="line"/>
      <point x="353.806" y="518.0" type="line"/>
      <point x="250.174" y="518.0" type="line"/>
      <point x="250.174" y="502.62" type="line"/>
      <point x="252.252" y="502.62" type="line" smooth="yes"/>
      <point x="276.09" y="502.62"/>
      <point x="301.214" y="495.06"/>
      <point x="301.214" y="486.66" type="curve"/>
      <point x="187.46" y="42.76" type="line"/>
      <point x="182.336" y="26.94" type="line"/>
      <point x="133.904" y="-164.7"/>
      <point x="103.094" y="-186.54"/>
      <point x="55.232" y="-186.54" type="curve" smooth="yes"/>
      <point x="30.722" y="-186.54"/>
      <point x="12.118" y="-170.98"/>
      <point x="7.138000000000001" y="-167.26" type="curve"/>
      <point x="7.138000000000001" y="-213.86" type="line"/>
      <point x="14.68" y="-221.14"/>
      <point x="32.36" y="-230.28"/>
    </contour>
  </outline>
</glyph>
<glyph name="bar" format="2">
  <advance width="182.956"/>
  <unicode hex="007C"/>
  <outline>
    <contour>
      <point x="79.998" y="750.0" type="line"/>
      <point x="79.998" y="-129.72" type="line"/>
      <point x="102.562" y="-129.72" type="line"/>
      <point x="102.562" y="750.0" type="line"/>
    </contour>
  </outline>
</glyph>
<glyph name="logicalnot" format="2">
  <advance width="383.6"/>
  <unicode hex="00AC"/>
  <outline>
    <contour>
      <point x="296.024" y="343.8" type="line"/>
      <point x="296.024" y="175.3" type="line"/>
      <point x="320.3" y="175.3" type="line"/>
      <point x="320.3" y="362.4" type="line"/>
      <point x="63.3" y="362.4" type="line"/>
      <point x="63.3" y="329.82" type="line"/>
      <point x="310.582" y="329.82" type="line"/>
    </contour>
  </outline>
</glyph>
<glyph name="Lslash" format="2">
  <advance width="398.476"/>
  <unicode hex="0141"/>
  <outline>
    <contour>
      <point x="29.214" y="225.2" type="line"/>
      <point x="88.768" y="300.34000000000003" type="line"/>
      <point x="276.124" y="522.66" type="line"/>
      <point x="216.57" y="447.52" type="line"/>
    </contour>
    <component base="L" xOffset="-66.888"/>
  </outline>
</glyph>
<glyph name="blackuppointingtriangle" format="2">
  <advance width="441.6"/>
  <outline>
    <contour>
      <point x="37.9" y="91.0" type="line"/>
      <point x="404.6" y="91.0" type="line"/>
      <point x="220.3" y="464.0" type="line"/>
    </contour>
  </outline>
</glyph>
<glyph name="braceleft.uc" format="2">
  <advance width="219.894"/>
  <outline>
    <contour>
      <point x="157.376" y="292.64" type="curve"/>
      <point x="157.376" y="312.44"/>
      <point x="148.744" y="320.28"/>
      <point x="75.9" y="346.3" type="curve"/>
      <point x="75.9" y="352.16" type="line"/>
      <point x="148.744" y="378.18"/>
      <point x="157.376" y="386.02"/>
      <point x="157.376" y="405.82" type="curve" smooth="yes"/>
      <point x="157.376" y="438.34"/>
      <point x="83.556" y="551.44"/>
      <point x="83.556" y="629.58" type="curve" smooth="yes"/>
      <point x="83.556" y="695.28"/>
      <point x="128.62423134027802" y="732.160004360114"/>
      <point x="205.49" y="733.18" type="curve"/>
      <point x="196.914" y="758.46" type="line"/>
      <point x="122.344838665126" y="756.00003489364"/>
      <point x="48.5" y="725.12"/>
      <point x="48.5" y="629.44" type="curve" smooth="yes"/>
      <point x="48.5" y="560.2"/>
      <point x="100.332" y="481.22"/>
      <point x="133.976" y="401.74" type="curve"/>
      <point x="140.178" y="408.86" type="line"/>
      <point x="33.8" y="359.14" type="line"/>
      <point x="33.8" y="339.32" type="line"/>
      <point x="140.178" y="289.6" type="line"/>
      <point x="133.976" y="296.72" type="line"/>
      <point x="100.332" y="217.24"/>
      <point x="48.5" y="138.26"/>
      <point x="48.5" y="69.02" type="curve" smooth="yes"/>
      <point x="48.5" y="-26.66"/>
      <point x="122.344" y="-57.54"/>
      <point x="196.914" y="-60.0" type="curve"/>
      <point x="205.49" y="-34.72" type="line"/>
      <point x="128.624" y="-33.7"/>
      <point x="83.556" y="3.1799999999999997"/>
      <point x="83.556" y="68.88" type="curve" smooth="yes"/>
      <point x="83.556" y="147.02"/>
      <point x="157.376" y="260.12"/>
    </contour>
  </outline>
</glyph>
<glyph name="cent.alt" format="2">
  <advance width="383.6"/>
  <outline>
    <contour>
      <point x="207.876" y="18.28" type="curve" smooth="yes"/>
      <point x="127.094" y="18.28"/>
      <point x="75.946" y="106.68"/>
      <point x="75.946" y="253.84" type="curve" smooth="yes"/>
      <point x="75.946" y="392.98"/>
      <point x="122.796" y="489.12"/>
      <point x="213.11" y="489.12" type="curve" smooth="yes"/>
      <point x="264.248" y="489.12"/>
      <point x="303.808" y="457.84"/>
      <point x="319.686" y="426.14" type="curve"/>
      <point x="326.546" y="447.56"/>
      <point x="318.012" y="455.76"/>
      <point x="302.114" y="465.08" type="curve"/>
      <point x="302.114" y="367.84" type="line"/>
      <point x="339.192" y="367.84" type="line"/>
      <point x="339.192" y="458.96" type="line"/>
      <point x="323.104" y="480.94"/>
      <point x="279.838" y="519.4"/>
      <point x="213.11" y="519.4" type="curve" smooth="yes"/>
      <point x="105.004" y="519.4"/>
      <point x="39.23" y="407.4"/>
      <point x="39.23" y="253.84" type="curve" smooth="yes"/>
      <point x="39.23" y="92.26"/>
      <point x="110.458" y="-12.0"/>
      <point x="206.732" y="-12.0" type="curve" smooth="yes"/>
      <point x="279.2" y="-12.0"/>
      <point x="321.17" y="48.92"/>
      <point x="344.492" y="121.06" type="curve"/>
      <point x="327.712" y="143.78" type="line"/>
      <point x="309.944" y="83.78"/>
      <point x="273.824" y="18.28"/>
    </contour>
    <contour>
      <point x="216.992" y="504.68" type="line"/>
      <point x="216.992" y="623.0" type="line"/>
      <point x="192.494" y="623.0" type="line"/>
      <point x="192.494" y="507.4" type="line"/>
    </contour>
    <contour>
      <point x="192.494" y="0.72" type="line"/>
      <point x="192.494" y="-126.0" type="line"/>
      <point x="216.992" y="-126.0" type="line"/>
      <point x="216.992" y="-2.0" type="line"/>
    </contour>
  </outline>
</glyph>
<glyph name="cent.proportional" format="2">
  <advance width="388.704"/>
  <outline>
    <contour>
      <point x="195.728" y="623.0" type="line"/>
      <point x="195.728" y="507.4" type="line"/>
      <point x="195.728" y="498.84" type="line"/>
      <point x="195.728" y="6.72" type="line"/>
      <point x="195.728" y="0.72" type="line"/>
      <point x="195.728" y="-126.0" type="line"/>
      <point x="220.028" y="-126.0" type="line"/>
      <point x="220.028" y="-2.0" type="line"/>
      <point x="220.028" y="6.16" type="line"/>
      <point x="220.028" y="497.4" type="line"/>
      <point x="220.028" y="504.68" type="line"/>
      <point x="220.028" y="623.0" type="line"/>
    </contour>
    <contour>
      <point x="210.912" y="18.28" type="curve" smooth="yes"/>
      <point x="130.328" y="18.28"/>
      <point x="79.18" y="106.68"/>
      <point x="79.18" y="253.84" type="curve" smooth="yes"/>
      <point x="79.18" y="392.98"/>
      <point x="125.832" y="489.12"/>
      <point x="216.344" y="489.12" type="curve" smooth="yes"/>
      <point x="267.284" y="489.12"/>
      <point x="307.04200000000003" y="457.84"/>
      <point x="322.92" y="426.14" type="curve"/>
      <point x="329.78" y="447.56"/>
      <point x="321.246" y="455.76"/>
      <point x="305.348" y="465.08" type="curve"/>
      <point x="305.348" y="367.84" type="line"/>
      <point x="342.228" y="367.84" type="line"/>
      <point x="342.228" y="458.96" type="line"/>
      <point x="326.14" y="480.94"/>
      <point x="283.072" y="519.4"/>
      <point x="216.344" y="519.4" type="curve" smooth="yes"/>
      <point x="108.238" y="519.4"/>
      <point x="42.266" y="407.4"/>
      <point x="42.266" y="253.84" type="curve" smooth="yes"/>
      <point x="42.266" y="92.26"/>
      <point x="113.69200000000001" y="-12.0"/>
      <point x="209.966" y="-12.0" type="curve" smooth="yes"/>
      <point x="282.236" y="-12.0"/>
      <point x="324.404" y="48.92"/>
      <point x="347.528" y="121.06" type="curve"/>
      <point x="330.946" y="143.78" type="line"/>
      <point x="312.98" y="83.78"/>
      <point x="276.86" y="18.28"/>
    </contour>
  </outline>
</glyph>
<glyph name="circumflex_grave" format="2">
  <advance width="349.8"/>
  <anchor x="166.742" y="564.0" name="_top"/>
  <outline>
    <contour>
      <point x="265.194" y="824.98" type="curve" smooth="yes"/>
      <point x="263.544" y="830.02"/>
      <point x="290.576" y="731.64"/>
      <point x="286.858" y="731.64" type="curve"/>
      <point x="283.14" y="731.64"/>
      <point x="280.588" y="717.22"/>
      <point x="280.588" y="714.14" type="curve"/>
      <point x="280.588" y="711.62"/>
      <point x="274.828" y="708.54"/>
      <point x="277.82" y="705.88" type="curve"/>
      <point x="245.418" y="785.72" type="line" smooth="yes"/>
      <point x="238.008" y="800.34"/>
      <point x="234.47" y="813.24"/>
      <point x="234.47" y="826.14" type="curve" smooth="yes"/>
      <point x="234.47" y="838.18"/>
      <point x="240.164" y="848.6"/>
      <point x="248.43200000000002" y="848.6" type="curve" smooth="yes"/>
      <point x="258.338" y="848.6"/>
      <point x="257.784" y="850.78"/>
    </contour>
    <component base="circumflex" xOffset="-80.80199999999999"/>
  </outline>
</glyph>
<glyph name="circumflex_grave.uc" format="2">
  <advance width="349.8"/>
  <anchor x="167.522" y="696.0" name="_top"/>
  <outline>
    <contour>
      <point x="271.308" y="928.2" type="curve" smooth="yes"/>
      <point x="259.842" y="958.3"/>
      <point x="264.046" y="958.74"/>
      <point x="254.21800000000002" y="958.74" type="curve" smooth="yes"/>
      <point x="246.808" y="958.74"/>
      <point x="241.114" y="949.18"/>
      <point x="241.114" y="938.0" type="curve" smooth="yes"/>
      <point x="241.114" y="925.1"/>
      <point x="245.114" y="914.78"/>
      <point x="256.58" y="896.72" type="curve" smooth="yes"/>
      <point x="281.034" y="842.26" type="line"/>
      <point x="275.71" y="844.64"/>
      <point x="279.424" y="847.86"/>
      <point x="279.424" y="851.5" type="curve"/>
      <point x="279.424" y="854.3"/>
      <point x="281.954" y="869.0"/>
      <point x="285.892" y="869.0" type="curve"/>
      <point x="289.6190163934426" y="869.0"/>
      <point x="268.53544104730685" y="932.2623574008725"/>
    </contour>
    <component base="circumflex.uc" xOffset="-80.586"/>
  </outline>
</glyph>
<glyph name="circumflex_hook.uc" format="2">
  <advance width="349.602"/>
  <anchor x="167.522" y="694.0" name="_top"/>
  <outline>
    <contour>
      <point x="222.004" y="942.58" type="line"/>
      <point x="226.59912134153979" y="980.0063583339976"/>
      <point x="248.39582857142858" y="1016.58"/>
      <point x="291.966" y="1016.58" type="curve" smooth="yes"/>
      <point x="332.65565714285714" y="1016.58"/>
      <point x="355.718" y="992.16"/>
      <point x="355.718" y="948.16" type="curve" smooth="yes"/>
      <point x="355.718" y="898.74"/>
      <point x="320.8309565859935" y="876.881159423535"/>
      <point x="281.544" y="875.32" type="curve"/>
      <point x="297.586" y="900.9" type="line"/>
      <point x="297.586" y="838.72" type="line"/>
      <point x="273.50600000000003" y="838.72" type="line"/>
      <point x="273.50600000000003" y="898.48" type="line"/>
      <point x="303.9629277873009" y="901.4823181413595"/>
      <point x="322.334" y="914.46"/>
      <point x="322.334" y="947.74" type="curve" smooth="yes"/>
      <point x="322.334" y="974.02"/>
      <point x="311.538" y="988.3"/>
      <point x="291.262" y="988.3" type="curve" smooth="yes"/>
      <point x="266.03" y="988.3"/>
      <point x="256.53" y="966.86"/>
      <point x="251.956" y="942.58" type="curve"/>
    </contour>
    <component base="circumflex.uc" xOffset="-92.592"/>
  </outline>
</glyph>
<glyph name="f_i" format="2">
  <advance width="388.676"/>
  <outline>
    <contour>
      <point x="17.362000000000002" y="518.0" type="line"/>
      <point x="17.362000000000002" y="500.62" type="line"/>
      <point x="263.052" y="500.62" type="line"/>
      <point x="263.052" y="518.0" type="line"/>
    </contour>
    <contour>
      <point x="222.404" y="740.34" type="curve" smooth="yes"/>
      <point x="247.626" y="740.34"/>
      <point x="276.336" y="727.78"/>
      <point x="291.432" y="704.36" type="curve"/>
      <point x="279.216" y="729.62" type="line"/>
      <point x="279.216" y="655.4" type="line"/>
      <point x="313.096" y="655.4" type="line"/>
      <point x="313.096" y="720.74" type="line"/>
      <point x="299.34" y="735.88"/>
      <point x="267.222" y="758.0"/>
      <point x="222.106" y="758.0" type="curve" smooth="yes"/>
      <point x="143.224" y="758.0"/>
      <point x="85.542" y="703.76"/>
      <point x="85.542" y="564.26" type="curve" smooth="yes"/>
      <point x="85.542" y="42.78" type="line" smooth="yes"/>
      <point x="85.542" y="20.66"/>
      <point x="63.762" y="15.38"/>
      <point x="29.104" y="15.38" type="curve" smooth="yes"/>
      <point x="21.704" y="15.38" type="line"/>
      <point x="21.704" y="0.0" type="line"/>
      <point x="191.198" y="0.0" type="line"/>
      <point x="191.198" y="15.38" type="line"/>
      <point x="182.942" y="15.38" type="line" smooth="yes"/>
      <point x="147.438" y="15.38"/>
      <point x="120.356" y="18.38"/>
      <point x="120.356" y="27.34" type="curve" smooth="yes"/>
      <point x="120.356" y="568.14" type="line" smooth="yes"/>
      <point x="120.356" y="701.26"/>
      <point x="159.542" y="740.34"/>
    </contour>
    <contour>
      <point x="318.318" y="518.0" type="line"/>
      <point x="227.934" y="518.0" type="line"/>
      <point x="227.934" y="500.62" type="line"/>
      <point x="237.29" y="500.62" type="line" smooth="yes"/>
      <point x="270.77" y="500.62"/>
      <point x="283.504" y="490.92"/>
      <point x="283.504" y="473.1" type="curve" smooth="yes"/>
      <point x="283.504" y="40.2" type="line" smooth="yes"/>
      <point x="283.504" y="19.8"/>
      <point x="261.382" y="15.38"/>
      <point x="231.584" y="15.38" type="curve" smooth="yes"/>
      <point x="229.782" y="15.38" type="line"/>
      <point x="229.782" y="0.0" type="line"/>
      <point x="372.018" y="0.0" type="line"/>
      <point x="372.018" y="15.38" type="line"/>
      <point x="370.018" y="15.38" type="line" smooth="yes"/>
      <point x="340.418" y="15.38"/>
      <point x="318.318" y="19.8"/>
      <point x="318.318" y="40.2" type="curve" smooth="yes"/>
    </contour>
  </outline>
</glyph>
<glyph name="five.old" format="2">
  <advance width="383.6"/>
  <outline>
    <contour>
      <point x="189.094" y="-149.28" type="curve" smooth="yes"/>
      <point x="106.586" y="-149.28"/>
      <point x="56.13" y="-82.42"/>
      <point x="31.632" y="4.46" type="curve"/>
      <point x="47.894" y="28.18" type="line"/>
      <point x="69.532" y="-50.7"/>
      <point x="115.69" y="-119.28"/>
      <point x="187.708" y="-119.28" type="curve" smooth="yes"/>
      <point x="267.412" y="-119.28"/>
      <point x="315.69" y="-33.26"/>
      <point x="315.69" y="90.3" type="curve" smooth="yes"/>
      <point x="315.69" y="206.86"/>
      <point x="265.764" y="275.0"/>
      <point x="200.53" y="275.0" type="curve" smooth="yes"/>
      <point x="147.434" y="275.0"/>
      <point x="113.338" y="240.0"/>
      <point x="82.44200000000001" y="179.0" type="curve"/>
      <point x="64.3" y="179.0" type="line"/>
      <point x="64.3" y="548.0" type="line"/>
      <point x="323.644" y="548.0" type="line"/>
      <point x="316.132" y="504.7" type="line"/>
      <point x="76.12" y="504.7" type="line"/>
      <point x="87.324" y="528.0" type="line"/>
      <point x="87.324" y="206.4" type="line"/>
      <point x="84.542" y="194.44"/>
      <point x="80.562" y="187.4"/>
      <point x="74.646" y="198.98" type="curve"/>
      <point x="103.464" y="260.84"/>
      <point x="144.786" y="305.0"/>
      <point x="205.818" y="305.0" type="curve" smooth="yes"/>
      <point x="299.54200000000003" y="305.0"/>
      <point x="352.144" y="203.86"/>
      <point x="352.144" y="90.3" type="curve" smooth="yes"/>
      <point x="352.144" y="-45.4"/>
      <point x="289.436" y="-149.28"/>
    </contour>
  </outline>
</glyph>
<glyph name="guarani.proportional" format="2">
  <advance width="495.052"/>
  <outline>
    <contour>
      <point x="334.87" y="353.0" type="line"/>
      <point x="334.87" y="323.0" type="line"/>
      <point x="341.56600000000003" y="323.0" type="line" smooth="yes"/>
      <point x="374.804" y="323.0"/>
      <point x="398.862" y="316.0"/>
      <point x="398.862" y="287.0" type="curve"/>
      <point x="431.4" y="287.0" type="line"/>
      <point x="431.4" y="316.0"/>
      <point x="453.5" y="323.0"/>
      <point x="483.0" y="323.0" type="curve" smooth="yes"/>
      <point x="485.2" y="323.0" type="line"/>
      <point x="485.2" y="353.0" type="line"/>
    </contour>
    <contour>
      <point x="239.498" y="790.0" type="line"/>
      <point x="239.498" y="683.28" type="line"/>
      <point x="239.498" y="678.44" type="line"/>
      <point x="239.498" y="26.26" type="line"/>
      <point x="239.498" y="20.42" type="line"/>
      <point x="239.498" y="-120.0" type="line"/>
      <point x="263.996" y="-120.0" type="line"/>
      <point x="263.996" y="22.0" type="line"/>
      <point x="263.996" y="29.42" type="line"/>
      <point x="263.996" y="682.16" type="line"/>
      <point x="263.996" y="687.3" type="line"/>
      <point x="263.996" y="790.0" type="line"/>
    </contour>
    <contour>
      <point x="261.424" y="10.0" type="curve" smooth="yes"/>
      <point x="342.062" y="10.0"/>
      <point x="407.056" y="72.42"/>
      <point x="431.4" y="123.4" type="curve"/>
      <point x="431.4" y="333.0" type="line"/>
      <point x="398.862" y="339.88" type="line"/>
      <point x="398.862" y="129.34" type="line"/>
      <point x="380.87784659295" y="99.504554027331"/>
      <point x="340.302" y="40.0"/>
      <point x="262.226" y="40.0" type="curve" smooth="yes"/>
      <point x="141.776" y="40.0"/>
      <point x="70.704" y="159.14"/>
      <point x="70.704" y="355.0" type="curve" smooth="yes"/>
      <point x="70.704" y="547.58"/>
      <point x="145.052" y="670.0"/>
      <point x="264.084" y="670.0" type="curve" smooth="yes"/>
      <point x="335.014" y="670.0"/>
      <point x="381.481978006184" y="627.42333428382"/>
      <point x="406.922" y="586.08" type="curve"/>
      <point x="415.263082194702" y="567.901753435278"/>
      <point x="412.351311430162" y="600.04004868675"/>
      <point x="387.8" y="627.98" type="curve"/>
      <point x="387.8" y="519.76" type="line"/>
      <point x="428.772" y="519.76" type="line"/>
      <point x="428.772" y="613.34" type="line"/>
      <point x="399.976" y="655.14"/>
      <point x="342.7" y="700.0"/>
      <point x="264.084" y="700.0" type="curve" smooth="yes"/>
      <point x="127.392" y="700.0"/>
      <point x="33.766" y="559.58"/>
      <point x="33.766" y="355.0" type="curve" smooth="yes"/>
      <point x="33.766" y="149.0"/>
      <point x="124.774" y="10.0"/>
    </contour>
  </outline>
</glyph>
<glyph name="heart" format="2">
  <advance width="617.5"/>
  <outline>
    <contour>
      <point x="300.4" y="-10.0" type="line"/>
      <point x="138.1" y="273.0" type="line" smooth="yes"/>
      <point x="80.1" y="375.0"/>
      <point x="48.4" y="437.0"/>
      <point x="48.4" y="535.0" type="curve" smooth="yes"/>
      <point x="48.4" y="632.0"/>
      <point x="92.8" y="710.0"/>
      <point x="172.8" y="710.0" type="curve" smooth="yes"/>
      <point x="277.1" y="710.0"/>
      <point x="334.1" y="567.0"/>
      <point x="334.1" y="363.0" type="curve"/>
      <point x="282.5" y="363.0" type="line"/>
      <point x="282.5" y="567.0"/>
      <point x="340.4" y="710.0"/>
      <point x="444.7" y="710.0" type="curve" smooth="yes"/>
      <point x="523.8" y="710.0"/>
      <point x="569.1" y="632.0"/>
      <point x="569.1" y="535.0" type="curve" smooth="yes"/>
      <point x="569.1" y="437.0"/>
      <point x="537.4" y="375.0"/>
      <point x="478.5" y="273.0" type="curve" smooth="yes"/>
      <point x="316.2" y="-10.0" type="line"/>
    </contour>
  </outline>
</glyph>
